<?xml version="1.0" encoding="UTF-8" standalone="no"?>
<svg
   xmlns:dc="http://purl.org/dc/elements/1.1/"
   xmlns:cc="http://creativecommons.org/ns#"
   xmlns:rdf="http://www.w3.org/1999/02/22-rdf-syntax-ns#"
   xmlns:svg="http://www.w3.org/2000/svg"
   xmlns="http://www.w3.org/2000/svg"
   xmlns:sodipodi="http://sodipodi.sourceforge.net/DTD/sodipodi-0.dtd"
   xmlns:inkscape="http://www.inkscape.org/namespaces/inkscape"
   width="442.19183"
   height="491.52585"
   viewBox="0 0 116.99659 130.04955"
   version="1.1"
   id="svg847"
   sodipodi:docname="Koulamoutou.svg"
   inkscape:version="1.0.2 (e86c870879, 2021-01-15, custom)">
  <defs
     id="defs841" />
  <sodipodi:namedview
     id="base"
     pagecolor="#ffffff"
     bordercolor="#666666"
     borderopacity="1.0"
     inkscape:pageopacity="0.0"
     inkscape:pageshadow="2"
     inkscape:zoom="0.70000001"
     inkscape:cx="289.05705"
     inkscape:cy="262.05275"
     inkscape:document-units="px"
     inkscape:current-layer="layer1"
     inkscape:document-rotation="0"
     showgrid="false"
     inkscape:snap-smooth-nodes="true"
     inkscape:showpageshadow="false"
     borderlayer="true"
     units="px"
     inkscape:window-width="1920"
     inkscape:window-height="1017"
     inkscape:window-x="-8"
     inkscape:window-y="-4"
     inkscape:window-maximized="1"
     inkscape:snap-global="false"
     inkscape:snap-midpoints="false"
     inkscape:snap-intersection-paths="false"
     showguides="true"
     inkscape:guide-bbox="true" />
  <metadata
     id="metadata844">
    <rdf:RDF>
      <cc:Work
         rdf:about="">
        <dc:format>image/svg+xml</dc:format>
        <dc:type
           rdf:resource="http://purl.org/dc/dcmitype/StillImage" />
        <dc:title></dc:title>
      </cc:Work>
    </rdf:RDF>
  </metadata>
  <g
     inkscape:label="Layer 1"
     inkscape:groupmode="layer"
     id="layer1"
     transform="translate(-49.839118,-93.810416)">
    <path
       style="font-variation-settings:normal;opacity:1;vector-effect:none;fill:#ffffff;fill-opacity:1;stroke:none;stroke-width:0.661458;stroke-linecap:butt;stroke-linejoin:miter;stroke-miterlimit:4;stroke-dasharray:none;stroke-dashoffset:0;stroke-opacity:1;stop-color:#000000;stop-opacity:1"
       d="M 166.50498,135.82367 V 94.141145 H 50.169847 v 41.682525 c 0,49.82738 27.66507,74.7411 58.167573,87.67705 30.50249,-12.93595 58.16756,-37.84967 58.16756,-87.67705 z"
       id="path5426"
       sodipodi:nodetypes="sccscs" />
    <path
       style="font-variation-settings:normal;opacity:1;vector-effect:none;fill:none;fill-opacity:1;stroke:#000000;stroke-width:0.661458;stroke-linecap:butt;stroke-linejoin:miter;stroke-miterlimit:4;stroke-dasharray:none;stroke-dashoffset:0;stroke-opacity:1;stop-color:#000000;stop-opacity:1"
       d="M 50.169847,135.82367 V 94.141145 H 166.50498 v 41.682525 c 0,49.82738 -27.66507,74.7411 -58.16757,87.67705 C 77.834917,210.56477 50.169847,185.65105 50.169847,135.82367 Z"
       id="path1452"
       sodipodi:nodetypes="sccscs" />
    <path
       id="path1037"
       style="opacity:1;fill:#008015;fill-opacity:1;stroke:#000000;stroke-width:0.529167;paint-order:fill markers stroke"
       d="m 87.129869,211.87867 c -4.63056,-3.82977 -6.19895,-11.5374 -1.61024,-14.90246 5.04747,-3.70147 10.69621,1.18475 12.93203,3.50315 -0.87693,-1.63263 -1.33587,-3.45703 -1.33584,-5.31027 -1.2e-4,-6.19762 5.023921,-11.22205 11.221601,-11.22205 6.19767,0 11.22171,5.02443 11.22159,11.22205 4e-5,1.85324 -0.4589,3.67764 -1.33584,5.31027 2.23582,-2.3184 7.88456,-7.20462 12.93203,-3.50315 4.58871,3.36506 3.02032,11.07269 -1.61024,14.90246 -6.67338,4.68931 -13.85716,8.50479 -21.20754,11.62202 -7.35039,-3.11723 -14.534171,-6.93271 -21.207551,-11.62202 z"
       sodipodi:nodetypes="cscczccsccc" />
    <path
       id="path1039"
       style="color:#000000;font-style:normal;font-variant:normal;font-weight:normal;font-stretch:normal;font-size:medium;line-height:normal;font-family:sans-serif;font-variant-ligatures:normal;font-variant-position:normal;font-variant-caps:normal;font-variant-numeric:normal;font-variant-alternates:normal;font-variant-east-asian:normal;font-feature-settings:normal;font-variation-settings:normal;text-indent:0;text-align:start;text-decoration:none;text-decoration-line:none;text-decoration-style:solid;text-decoration-color:#000000;letter-spacing:normal;word-spacing:normal;text-transform:none;writing-mode:lr-tb;direction:ltr;text-orientation:mixed;dominant-baseline:auto;baseline-shift:baseline;text-anchor:start;white-space:normal;shape-padding:0;shape-margin:0;inline-size:0;clip-rule:nonzero;display:inline;overflow:visible;visibility:visible;opacity:1;isolation:auto;mix-blend-mode:normal;color-interpolation:sRGB;color-interpolation-filters:linearRGB;solid-color:#000000;solid-opacity:1;vector-effect:none;fill:#000000;fill-opacity:1;fill-rule:nonzero;stroke:none;stroke-width:3.77953;stroke-linecap:butt;stroke-linejoin:miter;stroke-miterlimit:4;stroke-dasharray:none;stroke-dashoffset:0;stroke-opacity:1;color-rendering:auto;image-rendering:auto;shape-rendering:auto;text-rendering:auto;enable-background:accumulate;stop-color:#000000;stop-opacity:1"
       d="m 184.53516,402.55664 -1.60157,1.19727 c 0,0 4.13557,5.64357 9.11914,7.63281 -3.3502,-3.31404 -6.64704,-7.69169 -7.51757,-8.83008 z m 73.12109,0 c -0.87054,1.13839 -4.16737,5.51604 -7.51758,8.83008 4.98357,-1.98924 9.11914,-7.63281 9.11914,-7.63281 z"
       transform="matrix(0.26458334,0,0,0.26458334,49.839118,93.810416)" />
    <path
       id="path1081"
       style="font-variation-settings:normal;opacity:1;vector-effect:none;fill:#000000;fill-opacity:1;stroke:none;stroke-width:0.999999;stroke-linecap:butt;stroke-linejoin:miter;stroke-miterlimit:4;stroke-dasharray:none;stroke-dashoffset:0;stroke-opacity:1;stop-color:#000000;stop-opacity:1"
       d="m 440.94141,132.9082 -85.22657,0.66407 c 0,0 -42.32227,13.39257 -83.57226,43.39257 -41.24999,30 -73.82087,56.81209 -93.72266,58.16993 -19.90177,1.35779 -30.66908,-11.79773 -38.59765,-22.36915 -7.92858,-10.57141 -25.34906,-12.3241 -29.19727,6.62305 -9.53032,9.09812 -10.797232,18.56712 -6.08594,25.31641 4.71129,6.74933 10.20381,6.75174 22.42578,12.08008 0,0 -20.26664,-1.84833 -31.630856,3.07617 -11.364219,4.9245 -9.85037,16.28822 -5.304687,28.03125 1.136424,12.87946 4.167825,24.24393 18.562503,23.48633 14.39467,-0.75761 16.28921,-10.98529 31.82031,-14.39453 0,0 -12.12295,10.22746 -11.74414,21.21289 0.37881,10.98538 7.57563,15.15213 20.45508,14.39453 0,0 6.82017,8.71426 21.21484,6.4414 14.39468,-2.27285 15.52969,-20.07658 17.04492,-29.16797 1.51523,-9.09135 10.60746,-22.35039 18.1836,-25.38085 0,0 -1.89473,20.45483 19.69726,12.12109 0,0 14.77443,1.89508 18.5625,-10.98438 3.78807,-12.87942 -8.33398,-18.18359 -8.33398,-18.18359 0,0 14.39514,-3.78822 24.24414,-7.95508 0,0 2.27167,25.00242 25.3789,19.32031 0,0 -9.46962,-8.71388 -5.30273,-20.07812 4.16685,-11.36421 17.04688,-15.53125 17.04688,-15.53125 0,0 -3.40948,25.37998 14.01562,29.54687 0,0 -6.4397,-30.30376 29.92578,-41.66796 0,0 -12.12164,21.59136 0.75781,34.84961 0,0 -1.13688,-21.21226 35.60743,-33.7129 0,0 -6.06101,16.66684 -0.37891,27.27344 0,0 22.68313,-38.14622 60.19141,-39.80664 2.58665,-19.12044 3.96289,-39.38191 3.96289,-60.88476 z"
       transform="matrix(0.26458334,0,0,0.26458334,49.839118,93.810416)" />
    <path
       style="font-variation-settings:normal;opacity:1;vector-effect:none;fill:#d82216;fill-opacity:1;stroke:#000000;stroke-width:0.529167;stroke-linecap:butt;stroke-linejoin:miter;stroke-miterlimit:4;stroke-dasharray:none;stroke-dashoffset:0;stroke-opacity:1;stop-color:#000000;stop-opacity:1"
       d="M 166.50498,130.00284 V 94.141145 H 50.169847 v 35.861695 z"
       id="path1059"
       sodipodi:nodetypes="ccccc" />
    <path
       id="path1061"
       style="opacity:1;fill:#ffffff;fill-opacity:0.99495;stroke:#000000;stroke-width:0.529167;stroke-miterlimit:4;stroke-dasharray:none;paint-order:fill markers stroke"
       d="m 108.33743,99.309014 3.20244,9.791976 10.30156,0.0203 -8.32233,6.07184 3.16426,9.80442 -8.34593,-6.0394 -8.345932,6.0394 3.164272,-9.80442 -8.322344,-6.07184 10.301574,-0.0203 z" />
    <path
       id="path1066"
       style="opacity:1;fill:#ffffff;fill-opacity:0.99495;stroke:#000000;stroke-width:0.529167;stroke-miterlimit:4;stroke-dasharray:none;paint-order:fill markers stroke"
       d="m 72.883259,99.309014 3.202437,9.791976 10.301554,0.0203 -8.322324,6.07184 3.164257,9.80442 -8.345924,-6.0394 -8.345929,6.0394 3.164272,-9.80442 -8.322344,-6.07184 10.301574,-0.0203 z" />
    <path
       id="path1068"
       style="opacity:1;fill:#ffffff;fill-opacity:0.99495;stroke:#000000;stroke-width:0.529167;stroke-miterlimit:4;stroke-dasharray:none;paint-order:fill markers stroke"
       d="m 143.79157,99.309014 -3.20244,9.791976 -10.30155,0.0203 8.32232,6.07184 -3.16426,9.80442 8.34593,-6.0394 8.34593,6.0394 -3.16428,-9.80442 8.32235,-6.07184 -10.30158,-0.0203 z" />
    <path
       style="font-variation-settings:normal;opacity:1;vector-effect:none;fill:#d82216;fill-opacity:1;stroke:#000000;stroke-width:0.529167;stroke-linecap:butt;stroke-linejoin:miter;stroke-miterlimit:4;stroke-dasharray:none;stroke-dashoffset:0;stroke-opacity:1;stop-color:#000000;stop-opacity:1"
       d="m 71.036933,152.1754 c 0,0 3.469959,-3.78783 8.982392,-2.23433 0,0 -0.312837,1.7332 0.03795,3.03614 0,0 -1.453278,0.30068 -2.555765,1.1526 0,0 -2.154859,-2.00452 -6.464581,-1.95441 z"
       id="path1099"
       sodipodi:nodetypes="ccccc" />
    <path
       style="font-variation-settings:normal;vector-effect:none;fill:#d82216;fill-opacity:1;stroke:#000000;stroke-width:0.529167;stroke-linecap:butt;stroke-linejoin:miter;stroke-miterlimit:4;stroke-dasharray:none;stroke-dashoffset:0;stroke-opacity:1;stop-color:#000000"
       d="m 66.472539,176.09163 c 0,0 -1.006761,-7.18331 6.718259,-9.04955 0,0 0.586928,1.7009 2.323787,2.5494 0,0 -1.080656,1.14705 -1.520341,2.55975 0,0 -3.237223,-0.005 -7.521705,3.9404 z"
       id="path1099-5"
       sodipodi:nodetypes="ccccc" />
    <path
       style="font-variation-settings:normal;vector-effect:none;fill:#d82216;fill-opacity:1;stroke:#000000;stroke-width:0.529167;stroke-linecap:butt;stroke-linejoin:miter;stroke-miterlimit:4;stroke-dasharray:none;stroke-dashoffset:0;stroke-opacity:1;stop-color:#000000"
       d="m 89.690325,191.04369 c 0,0 -4.631351,-2.37684 -2.03708,-9.49322 0,0 1.474848,0.0225 2.72509,-0.82117 0,0 0.44319,1.39539 1.59624,2.47812 0,0 -2.171755,2.5203 -2.28425,7.83627 z"
       id="path1121"
       sodipodi:nodetypes="ccccc" />
    <path
       style="font-variation-settings:normal;opacity:1;vector-effect:none;fill:#d82216;fill-opacity:1;stroke:#000000;stroke-width:0.529167;stroke-linecap:butt;stroke-linejoin:miter;stroke-miterlimit:4;stroke-dasharray:none;stroke-dashoffset:0;stroke-opacity:1;stop-color:#000000;stop-opacity:1"
       d="m 107.64834,179.09832 c 0,0 3.87886,-2.16347 3.81699,-6.96643 0,0 -1.48159,-0.44057 -2.45986,-1.09311 0,0 -0.75888,1.01148 -1.6873,1.63711 0,0 1.30517,3.03177 0.33017,6.42243 z"
       id="path1123"
       sodipodi:nodetypes="ccccc" />
  </g>
</svg>
